<svg width="114" height="114" viewBox="0 0 114 114" fill="none" xmlns="http://www.w3.org/2000/svg">
<path d="M48.5067 0.0154557C50.1112 0.0125823 51.7157 0.0103727 53.3202 0.00901952C54.0652 0.0083702 54.8101 0.00748891 55.5551 0.00608449C56.2735 0.00473853 56.9919 0.00399275 57.7103 0.00366989C57.985 0.00343969 58.2596 0.00299019 58.5342 0.00232173C58.9177 0.00142501 59.3012 0.00129558 59.6847 0.00135337C59.8564 0.000683454 59.8564 0.000683454 60.0316 0C60.1878 0.000256146 60.1878 0.000256147 60.3472 0.000517467C60.438 0.00040296 60.5288 0.000288453 60.6223 0.000170476C60.8453 0.0154557 60.8453 0.0154557 61.0921 0.139678C61.3797 0.177928 61.6674 0.202901 61.9563 0.228963C62.2026 0.2639 62.2026 0.2639 62.326 0.388122C62.6078 0.449609 62.8908 0.50553 63.1742 0.558928C63.7665 0.672418 64.3452 0.800604 64.9248 0.970413C65.388 1.10404 65.7883 1.17313 66.2743 1.13345C66.315 1.29743 66.3558 1.4614 66.3977 1.63034C66.5071 1.59704 66.6166 1.56373 66.7293 1.52941C67.138 1.50612 67.138 1.50612 67.4773 1.70798C68.0717 2.39106 68.0335 3.62684 68.0017 4.48745C67.9807 4.56561 67.9597 4.64376 67.938 4.72428C67.873 5.00763 67.8768 5.23347 67.8976 5.52296C67.9074 5.67524 67.9074 5.67524 67.9174 5.8306C67.9324 6.04185 67.9475 6.25309 67.9627 6.46433C67.9991 7.03331 67.9824 7.52598 67.8783 8.08989C67.9191 8.17188 67.9598 8.25387 68.0017 8.33834C68.0497 9.19414 67.9884 10.0606 67.9478 10.9159C67.9405 11.0812 67.9405 11.0812 67.9331 11.2498C67.9039 11.8814 67.8643 12.5113 67.8162 13.1418C67.7378 14.2183 67.7131 15.2954 67.6868 16.3742C67.6126 19.352 67.6126 19.352 67.4423 20.0283C67.3794 20.2858 67.3765 20.5003 67.3858 20.7649C67.4186 22.1578 67.3331 23.4987 67.1642 24.8812C67.006 26.2089 66.9211 27.5364 66.8477 28.871C66.8043 29.651 66.7557 30.4219 66.6445 31.1952C67.1966 31.0154 67.574 30.7057 68.0017 30.3257C68.0706 30.2691 68.1395 30.2126 68.2104 30.1544C68.6984 29.751 69.1032 29.3136 69.5113 28.8297C69.7846 28.5246 70.0823 28.265 70.3981 28.0057C70.5982 27.8367 70.7809 27.6569 70.963 27.4685C70.963 27.5505 70.963 27.6325 70.963 27.717C71.0444 27.717 71.1259 27.717 71.2098 27.717C71.2276 27.6376 71.2454 27.5581 71.2638 27.4763C71.3572 27.1313 71.5771 26.9745 71.8267 26.7232C71.9081 26.7642 71.9896 26.8052 72.0735 26.8474C72.0328 26.6835 71.992 26.5195 71.9501 26.3505C72.0315 26.3505 72.113 26.3505 72.1969 26.3505C72.1969 26.2686 72.1969 26.1866 72.1969 26.1021C72.4819 26.0201 72.7669 25.9381 73.0606 25.8537C73.0742 25.6898 73.0742 25.6898 73.088 25.5227C73.2031 25.0255 73.3868 24.8104 73.7315 24.4406C73.8801 24.2778 73.8801 24.2778 74.0318 24.1116C74.2944 23.8661 74.2944 23.8661 74.5412 23.8661C74.5412 23.7841 74.5412 23.7021 74.5412 23.6177C74.7448 23.5767 74.9484 23.5357 75.1581 23.4934C75.1632 23.4038 75.1683 23.3141 75.1736 23.2217C75.2989 22.8161 75.4773 22.6831 75.8064 22.4312C76.1376 22.1545 76.4015 21.825 76.6802 21.4962C76.94 21.1941 77.2181 20.9149 77.5025 20.6363C77.5915 20.5415 77.6806 20.4467 77.7724 20.3491C77.996 20.1394 77.996 20.1394 78.2428 20.1394C78.2708 20.0523 78.2988 19.9652 78.3276 19.8755C78.6448 19.176 79.1041 18.7654 79.7003 18.3072C80.2776 17.8589 80.7003 17.3636 81.1308 16.7738C81.1957 16.6957 81.2606 16.6175 81.3275 16.537C81.4089 16.537 81.4903 16.537 81.5742 16.537C81.6022 16.4678 81.6302 16.3986 81.6591 16.3274C81.8663 15.9597 82.1378 15.7141 82.4379 15.419C82.5444 15.2853 82.6498 15.1507 82.7541 15.0153C83.1372 14.5801 83.1372 14.5801 83.5484 14.5494C83.5484 14.4265 83.5484 14.3035 83.5484 14.1768C83.6247 14.1486 83.7011 14.1204 83.7798 14.0914C84.0685 13.9493 84.0685 13.9493 84.1499 13.6333C84.3392 13.1886 84.6284 13.0624 85.029 12.8103C85.1105 12.6874 85.1919 12.5644 85.2758 12.4377C85.3572 12.4377 85.4387 12.4377 85.5226 12.4377C85.5226 12.3557 85.5226 12.2737 85.5226 12.1892C85.7227 11.9768 85.929 11.7702 86.1395 11.5681C86.2426 11.4567 86.2426 11.4567 86.3477 11.343C86.5097 11.1954 86.5097 11.1954 86.7564 11.1954C86.7564 11.0725 86.7564 10.9495 86.7564 10.8228C87.036 10.5734 87.036 10.5734 87.4042 10.3104C87.5245 10.2229 87.6447 10.1355 87.7686 10.0454C88.0642 9.86003 88.2638 9.74085 88.6072 9.70478C88.7336 9.82594 88.8563 9.95099 88.9774 10.0774C89.1888 10.1658 89.4003 10.254 89.6126 10.34C89.997 10.5253 90.2731 10.776 90.5814 11.0712C90.5814 11.1532 90.5814 11.2352 90.5814 11.3197C90.7756 11.4928 90.9775 11.6572 91.1829 11.8166C91.7997 12.2977 91.7997 12.2977 92.0621 12.5619C92.0621 12.7259 92.0621 12.8898 92.0621 13.0588C92.1562 13.087 92.2504 13.1151 92.3474 13.1442C92.7572 13.3457 92.8663 13.5118 93.0491 13.9283C93.0723 14.2777 93.0723 14.2777 93.0491 14.5494C93.3545 14.6109 93.3545 14.6109 93.6661 14.6737C93.6661 14.7966 93.6661 14.9196 93.6661 15.0463C93.7392 15.058 93.8124 15.0697 93.8878 15.0818C94.2203 15.1904 94.3402 15.328 94.5606 15.5976C94.6249 15.6743 94.6891 15.751 94.7553 15.83C94.8999 16.0401 94.8999 16.0401 94.8999 16.2886C95.0221 16.3295 95.1442 16.3705 95.2701 16.4128C95.3108 16.4948 95.3515 16.5767 95.3935 16.6612C95.5156 16.7432 95.6378 16.8252 95.7636 16.9097C95.9697 17.1892 96.103 17.4632 96.2572 17.7792C96.2165 17.9022 96.1758 18.0252 96.1338 18.1519C96.3781 18.2339 96.6224 18.3159 96.8741 18.4003C96.8741 18.5643 96.8741 18.7283 96.8741 18.8972C96.9683 18.9126 97.0624 18.928 97.1594 18.9438C97.491 19.0214 97.491 19.0214 97.8612 19.2699C97.9478 19.4751 98.0302 19.6822 98.108 19.891C98.1894 19.973 98.2709 20.055 98.3548 20.1394C98.37 20.2624 98.3853 20.3854 98.401 20.5121C98.4265 20.6351 98.4519 20.7581 98.4781 20.8848C98.7188 21.037 98.7188 21.037 98.9717 21.1332C99.0124 21.2562 99.0531 21.3792 99.0951 21.5059C99.2172 21.5469 99.3394 21.5879 99.4652 21.6301C99.4245 21.7121 99.3838 21.7941 99.3418 21.8785C99.4233 21.8785 99.5047 21.8785 99.5886 21.8785C99.8354 22.4686 99.8354 22.4686 99.8354 22.7481C99.9168 22.7891 99.9983 22.8301 100.082 22.8723C100.118 22.9518 100.153 23.0312 100.19 23.113C100.359 23.4242 100.509 23.475 100.822 23.6177C100.695 24.7216 100.158 25.3846 99.4652 26.2263C99.3806 26.3306 99.296 26.4348 99.2088 26.5422C98.7954 27.0363 98.7954 27.0363 98.6015 27.2201C98.5201 27.2201 98.4387 27.2201 98.3548 27.2201C98.3548 27.3021 98.3548 27.3841 98.3548 27.4685C98.2733 27.4685 98.1919 27.4685 98.108 27.4685C98.08 27.5377 98.052 27.6069 98.0232 27.6782C97.8163 28.0452 97.5437 28.2923 97.2443 28.5865C97.1578 28.7018 97.0712 28.8171 96.9821 28.9359C96.9057 29.0256 96.8294 29.1153 96.7507 29.2077C96.6286 29.2077 96.5064 29.2077 96.3806 29.2077C96.3475 29.305 96.3144 29.4024 96.2803 29.5027C96.1338 29.8288 96.1338 29.8288 95.7636 30.0772C95.7026 30.1848 95.6415 30.2924 95.5786 30.4033C95.4869 30.5493 95.4869 30.5493 95.3935 30.6983C95.2713 30.6983 95.1492 30.6983 95.0233 30.6983C95.0233 30.8213 95.0233 30.9443 95.0233 31.071C94.9419 31.071 94.8605 31.071 94.7766 31.071C94.7486 31.1402 94.7206 31.2093 94.6917 31.2806C94.4837 31.6497 94.2176 31.8965 93.9128 32.189C93.5466 32.548 93.2034 32.9159 92.8718 33.307C92.51 33.7286 92.1173 34.068 91.6919 34.425C91.2748 34.873 90.8873 35.345 90.5043 35.8225C90.2226 36.1509 89.9359 36.3985 89.5943 36.661C89.3008 36.9248 89.2297 37.017 89.1008 37.4063C88.8589 37.6078 88.605 37.7805 88.345 37.9576C88.1022 38.1333 88.1022 38.1333 88.0057 38.3846C87.7927 38.7897 87.4901 38.9952 87.1266 39.2696C87.0452 39.2696 86.9637 39.2696 86.8798 39.2696C86.8493 39.3465 86.8188 39.4234 86.7873 39.5026C86.6038 39.8167 86.4558 39.8558 86.1395 40.015C86.1069 40.0845 86.0743 40.154 86.0407 40.2256C85.8377 40.6183 85.5503 40.9204 85.2527 41.2417C85.1921 41.3075 85.1315 41.3734 85.0691 41.4412C84.6294 41.9138 84.1834 42.3533 83.6718 42.7479C83.5904 42.7479 83.5089 42.7479 83.425 42.7479C83.3996 42.817 83.3741 42.8862 83.3479 42.9575C83.1571 43.2806 82.9226 43.4743 82.6326 43.7067C82.2043 44.0568 81.8436 44.455 81.5048 44.8907C81.1217 45.3259 81.1217 45.3259 80.7105 45.3565C80.7105 45.4795 80.7105 45.6025 80.7105 45.7292C80.6393 45.7574 80.568 45.7856 80.4946 45.8146C80.1908 45.9701 80.1908 45.9701 79.9625 46.3037C79.8836 46.4011 79.8047 46.4984 79.7234 46.5988C79.6013 46.5988 79.4791 46.5988 79.3533 46.5988C79.3423 46.671 79.3313 46.7432 79.32 46.8176C79.2063 47.1683 79.0415 47.3182 78.7749 47.5692C78.4369 47.8948 78.1233 48.2224 77.8264 48.5863C77.7195 48.7093 77.6126 48.8323 77.5025 48.959C77.421 48.959 77.3396 48.959 77.2557 48.959C77.215 49.082 77.1743 49.2049 77.1323 49.3316C77.0102 49.3316 76.888 49.3316 76.7622 49.3316C76.7431 49.4431 76.7431 49.4431 76.7236 49.5568C76.6258 49.87 76.5258 50.002 76.2686 50.2012C76.1465 50.2012 76.0243 50.2012 75.8985 50.2012C75.817 50.4062 75.7356 50.6111 75.6517 50.8223C75.5702 50.8223 75.4888 50.8223 75.4049 50.8223C75.4049 50.9043 75.4049 50.9863 75.4049 51.0707C75.2828 51.0707 75.1606 51.0707 75.0348 51.0707C75.0219 51.1444 75.009 51.2181 74.9957 51.294C74.899 51.6079 74.7817 51.7444 74.5489 51.9714C74.4842 52.0361 74.4194 52.1007 74.3528 52.1674C74.171 52.313 74.171 52.313 73.9243 52.313C73.8886 52.4129 73.853 52.5128 73.8163 52.6158C73.6775 52.9341 73.6775 52.9341 73.4307 53.0583C73.6896 53.319 74.1845 53.2927 74.5412 53.3067C74.6267 53.2868 74.7123 53.2669 74.8004 53.2463C75.2735 53.162 75.7395 53.1652 76.2182 53.1665C76.3236 53.1662 76.429 53.166 76.5377 53.1658C76.8859 53.1652 77.2342 53.1656 77.5825 53.166C77.8261 53.1659 78.0698 53.1658 78.3134 53.1657C78.8248 53.1655 79.3361 53.1657 79.8475 53.1663C80.4981 53.167 81.1486 53.1666 81.7992 53.1659C82.3031 53.1654 82.807 53.1656 83.3109 53.1659C83.5504 53.166 83.79 53.1659 84.0295 53.1656C85.2656 53.1644 86.4919 53.1796 87.7244 53.2797C88.233 53.315 88.7384 53.3125 89.248 53.3078C89.809 53.3061 90.3682 53.3348 90.9284 53.3611C91.8631 53.4026 92.7973 53.4356 93.7326 53.4538C96.3538 53.5063 98.9646 53.6292 101.581 53.8016C103.23 53.9096 104.835 53.9839 106.483 53.8114C106.594 53.8006 106.704 53.7898 106.818 53.7786C107.267 53.7336 107.703 53.6853 108.146 53.5945C108.526 53.5488 108.686 53.6094 109.02 53.7881C109.498 54.0257 109.915 54.1108 110.447 54.1763C110.528 54.2583 110.609 54.3403 110.693 54.4247C111.021 54.495 111.346 54.5164 111.68 54.549C111.68 54.631 111.68 54.7129 111.68 54.7974C111.792 54.8333 111.904 54.8691 112.02 54.9061C112.849 55.1949 112.849 55.1949 113.161 55.667C113.185 56.0838 113.185 56.0838 113.177 56.5598C113.174 56.7179 113.172 56.8759 113.17 57.0387C113.165 57.2206 113.165 57.2206 113.161 57.4061C113.039 57.4061 112.917 57.4061 112.791 57.4061C112.743 57.3446 112.694 57.2831 112.644 57.2197C112.277 56.9136 111.899 57.0104 111.434 57.0334C111.434 57.1154 111.434 57.1974 111.434 57.2819C111.324 57.2958 111.324 57.2958 111.212 57.31C110.435 57.4403 110.162 57.6357 109.706 58.2756C109.625 58.2756 109.543 58.2756 109.46 58.2756C109.461 58.3842 109.461 58.3842 109.463 58.495C109.437 59.2035 109.29 59.6437 108.904 60.2399C108.465 60.9335 108.378 61.4709 108.382 62.2862C108.349 62.6234 108.349 62.6234 108.177 62.85C107.979 62.9961 107.979 62.9961 107.732 63.0892C107.349 63.3301 107.258 63.7027 107.115 64.1141C107.082 64.2092 107.049 64.3043 107.014 64.4023C106.716 65.2599 106.716 65.2599 106.629 66.156C106.622 66.5972 106.607 66.8472 106.375 67.2196C106.012 67.3594 106.012 67.3594 105.635 67.4681C105.424 67.6595 105.424 67.6595 105.264 67.8407C105.183 67.8407 105.102 67.8407 105.018 67.8407C105.071 68.6615 105.071 68.6615 105.511 69.3314C105.429 69.497 105.347 69.6627 105.264 69.8283C105.231 69.9154 105.198 70.0025 105.164 70.0923C105.018 70.3252 105.018 70.3252 104.725 70.4416C104.316 70.6081 104.167 70.8436 103.907 71.1947C103.826 71.2357 103.744 71.2767 103.66 71.319C103.701 71.3907 103.742 71.4624 103.784 71.5363C103.907 71.8158 103.907 71.8158 103.907 72.3127C103.428 72.8448 103.057 73.0167 102.349 73.06C101.79 73.0563 101.239 73.0093 100.697 72.8698C100.416 72.7945 100.416 72.7945 99.9742 72.763C99.4966 72.7086 99.153 72.533 98.7249 72.3127C98.3854 72.2813 98.3854 72.2813 98.108 72.3127C98.1894 72.2717 98.2709 72.2307 98.3548 72.1885C98.3548 72.1065 98.3548 72.0245 98.3548 71.9401C98.6805 71.8991 99.0062 71.8581 99.3418 71.8158C99.3418 71.7339 99.3418 71.6519 99.3418 71.5674C98.894 71.4854 98.4461 71.4034 97.9846 71.319C97.9846 71.237 97.9846 71.155 97.9846 71.0705C98.1475 70.9885 98.3103 70.9065 98.4781 70.8221C97.9123 70.5274 97.4485 70.4277 96.8124 70.3873C96.3882 70.3604 96.0439 70.3364 95.6403 70.201C95.2731 70.1731 94.9055 70.178 94.5375 70.1777C94.4374 70.1761 94.3372 70.1746 94.2341 70.1731C94.1371 70.1728 94.0402 70.1726 93.9403 70.1723C93.8082 70.1716 93.8082 70.1716 93.6733 70.1708C93.3809 70.2055 93.1803 70.3039 92.9258 70.4494C93.1701 70.5314 93.4144 70.6134 93.6661 70.6978C93.6661 70.7388 93.6661 70.7798 93.6661 70.8221C93.5695 70.8214 93.473 70.8208 93.3735 70.8201C92.939 70.8175 92.5044 70.8159 92.0698 70.8143C91.9178 70.8133 91.7658 70.8122 91.6092 70.8112C91.4649 70.8108 91.3206 70.8104 91.1718 70.8099C91.0381 70.8093 90.9043 70.8086 90.7665 70.808C90.4654 70.7868 90.4654 70.7868 90.3346 70.9463C90.7088 71.1615 91.0014 71.23 91.4297 71.2568C91.9206 71.2971 92.341 71.384 92.8024 71.5674C92.8024 71.6494 92.8024 71.7314 92.8024 71.8158C93.006 71.7749 93.2095 71.7339 93.4193 71.6916C93.46 71.7736 93.5007 71.8556 93.5427 71.9401C92.2169 72.2094 90.9701 72.2384 89.6252 72.1186C89.0866 72.0728 88.6028 72.0712 88.0694 72.1487C87.6122 72.2045 87.1544 72.2261 86.6948 72.2506C85.9712 72.2903 85.2547 72.3448 84.5355 72.437C84.5355 72.478 84.5355 72.5189 84.5355 72.5612C84.6292 72.5687 84.7229 72.5762 84.8194 72.584C84.942 72.5944 85.0646 72.6048 85.191 72.6155C85.3127 72.6256 85.4343 72.6357 85.5597 72.6461C85.8927 72.6854 85.8927 72.6854 86.2629 72.8096C86.3036 72.9326 86.3443 73.0556 86.3863 73.1823C86.2629 73.3065 86.2629 73.3065 85.9737 73.3206C85.8454 73.32 85.7171 73.3193 85.585 73.3186C85.4399 73.3182 85.2949 73.3178 85.1455 73.3174C84.9873 73.3164 84.8291 73.3153 84.6661 73.3143C84.4188 73.3136 84.1716 73.3128 83.9243 73.3122C83.4003 73.3105 82.8762 73.3078 82.3521 73.3052C81.9228 73.3032 81.4934 73.3013 81.0641 73.3002C80.7417 73.2992 80.4194 73.2977 80.0971 73.2956C79.3431 73.2935 78.6178 73.3119 77.8726 73.4307C77.8726 73.5947 77.8726 73.7587 77.8726 73.9276C78.1122 74.1431 78.3591 74.3505 78.613 74.5487C78.6537 74.6307 78.6944 74.7127 78.7363 74.7972C78.8585 74.8382 78.9806 74.8792 79.1065 74.9214C79.1421 75.0188 79.1778 75.1161 79.2145 75.2164C79.3919 75.6333 79.5822 75.6972 79.9702 75.9152C80.1779 76.1201 80.3833 76.3275 80.5871 76.5363C81.2787 77.1837 81.9823 77.818 82.6953 78.4413C82.8637 78.5887 83.0313 78.737 83.1985 78.8858C83.3297 79.0026 83.3297 79.0026 83.4636 79.1217C83.542 79.1916 83.6204 79.2616 83.7012 79.3337C83.936 79.5392 83.936 79.5392 84.2887 79.7661C84.2887 79.848 84.2887 79.93 84.2887 80.0145C84.4223 80.0299 84.4223 80.0299 84.5586 80.0456C84.9781 80.1582 85.2048 80.3423 85.5226 80.6356C85.5633 80.7176 85.604 80.7996 85.646 80.8841C85.8488 80.9737 86.0544 81.0572 86.2629 81.1325C86.2629 81.2145 86.2629 81.2965 86.2629 81.3809C86.3532 81.4135 86.4436 81.446 86.5367 81.4795C87.3523 81.8358 87.9866 82.4953 88.6072 83.1201C89.1267 83.556 89.6484 83.9845 90.2113 84.3623C90.2113 84.4443 90.2113 84.5263 90.2113 84.6107C90.2952 84.6363 90.3792 84.662 90.4657 84.6884C90.8453 84.8672 91.115 85.0953 91.4254 85.3755C91.87 85.7576 92.3465 86.0971 92.8188 86.4435C93.1717 86.7218 93.4767 87.0209 93.7895 87.3436C93.9317 87.4698 94.0754 87.5944 94.2213 87.7163C94.5932 88.0271 94.9304 88.364 95.2701 88.7101C95.3908 88.8318 95.5116 88.9534 95.6325 89.075C96.3883 89.8358 96.3883 89.8358 96.5724 90.0217C96.7412 90.1911 96.9117 90.3588 97.0823 90.5263C97.3302 90.783 97.5346 91.0341 97.7378 91.3265C98.0287 91.7285 98.3354 92.0051 98.7249 92.3125C98.9461 92.6379 99.1106 92.9662 99.2802 93.3218C99.4419 93.6339 99.5735 93.8256 99.8354 94.0516C99.3727 94.6572 99.3727 94.6572 99.0951 94.7969C98.9359 95.0803 98.795 95.3704 98.6526 95.6626C98.4781 95.9149 98.4781 95.9149 98.2265 96.0275C98.1467 96.0314 98.0669 96.0352 97.9846 96.0392C97.9032 95.9572 97.8217 95.8752 97.7378 95.7907C97.6157 95.7497 97.4935 95.7087 97.3677 95.6665C97.3677 95.5845 97.3677 95.5025 97.3677 95.418C97.2672 95.4853 97.2672 95.4853 97.1648 95.5539C97.0765 95.6116 96.9882 95.6692 96.8973 95.7286C96.8099 95.7863 96.7226 95.8439 96.6326 95.9033C96.3806 96.0392 96.3806 96.0392 96.0104 96.0392C95.9697 96.1211 95.929 96.2031 95.887 96.2876C95.6834 96.2466 95.4799 96.2056 95.2701 96.1634C95.2701 96.2864 95.2701 96.4093 95.2701 96.536C95.0258 96.4951 94.7815 96.4541 94.5298 96.4118C94.4891 96.5348 94.4483 96.6578 94.4064 96.7845C94.0494 96.9696 93.7128 97.0494 93.3191 97.1339C92.5034 97.331 91.896 97.7998 91.3217 98.3994C90.9516 98.5236 90.9516 98.5236 90.5814 98.3994C90.5814 98.4814 90.5814 98.5634 90.5814 98.6478C90.2145 98.8018 89.8593 98.9336 89.4709 99.0205C89.4709 99.1435 89.4709 99.2665 89.4709 99.3932C88.858 99.677 88.3073 99.89 87.6201 99.89C87.5387 100.136 87.4573 100.382 87.3734 100.635C87.2436 100.62 87.2436 100.62 87.1112 100.604C86.6278 100.647 86.3913 100.828 86.0161 101.132C85.8913 101.338 85.7678 101.545 85.646 101.753C85.3375 101.986 85.3375 101.986 85.029 102.126C84.9069 102.085 84.7847 102.044 84.6589 102.002C84.5774 102.207 84.496 102.412 84.4121 102.623C84.29 102.623 84.1678 102.623 84.0419 102.623C84.0419 102.705 84.0419 102.787 84.0419 102.871C83.9605 102.871 83.8791 102.871 83.7952 102.871C83.7952 102.789 83.7952 102.707 83.7952 102.623C83.7311 102.656 83.667 102.689 83.6009 102.723C82.5709 103.248 82.5709 103.248 82.1912 103.368C82.069 103.327 81.9468 103.286 81.821 103.244C81.8617 103.162 81.9024 103.08 81.9444 102.996C81.8706 102.98 81.7968 102.965 81.7207 102.949C81.4508 102.871 81.4508 102.871 81.0807 102.623C81.0807 102.541 81.0807 102.459 81.0807 102.374C80.9585 102.374 80.8364 102.374 80.7105 102.374C80.7105 102.293 80.7105 102.211 80.7105 102.126C80.6291 102.126 80.5476 102.126 80.4637 102.126C80.2581 101.919 80.0525 101.712 79.8468 101.505C79.5795 101.344 79.5795 101.344 79.3533 101.256C79.3533 101.175 79.3533 101.093 79.3533 101.008C79.2795 100.975 79.2057 100.941 79.1296 100.907C78.8599 100.76 78.6853 100.623 78.4896 100.387C78.4896 100.305 78.4896 100.223 78.4896 100.138C78.3839 100.088 78.3839 100.088 78.2761 100.036C77.9908 99.8873 77.7304 99.7213 77.4639 99.5407C77.3672 99.4752 77.2705 99.4097 77.1709 99.3422C76.9162 99.166 76.6651 98.9859 76.4151 98.8031C76.1209 98.594 75.8559 98.4203 75.5283 98.2752C75.5283 98.1932 75.5283 98.1112 75.5283 98.0267C75.3654 97.9857 75.2026 97.9447 75.0348 97.9025C75.0348 97.8205 75.0348 97.7385 75.0348 97.654C74.9463 97.6231 74.8579 97.5922 74.7668 97.5604C74.3818 97.3896 74.0975 97.1815 73.77 96.9165C73.6625 96.8308 73.555 96.7451 73.4442 96.6569C73.184 96.4118 73.184 96.4118 73.0606 96.0392C72.8553 95.9555 72.6495 95.8729 72.4436 95.7907C72.1661 95.5866 71.8997 95.3804 71.6339 95.1618C71.4813 95.0383 71.3285 94.9149 71.1756 94.7916C71.0991 94.7299 71.0226 94.6682 70.9438 94.6046C70.4884 94.2437 70.0171 93.9045 69.547 93.5635C69.2259 93.2983 68.9956 93.0145 68.7421 92.6852C68.5796 92.5983 68.4151 92.5153 68.2485 92.4367C68.084 92.2711 67.9195 92.1055 67.755 91.9398C67.6557 91.8809 67.5565 91.822 67.4542 91.7613C66.8797 91.4086 66.474 90.8926 66.0353 90.3871C65.258 89.4873 65.258 89.4873 64.1768 89.0827C64.1637 90.5159 64.1682 91.9445 64.2385 93.3761C64.3038 94.7101 64.3084 96.041 64.2956 97.376C64.2905 98.1014 64.3017 98.8056 64.3955 99.5251C64.4377 99.8879 64.4352 100.247 64.4312 100.612C64.4296 100.813 64.4296 100.813 64.4279 101.018C64.4257 101.198 64.4257 101.198 64.4235 101.381C64.4235 101.545 64.4235 101.709 64.4235 101.878C64.4214 102.055 64.4214 102.055 64.4192 102.236C64.4181 102.369 64.417 102.502 64.4158 102.638C64.4137 102.835 64.4137 102.835 64.4115 103.035C64.4207 103.383 64.4454 103.711 64.4847 104.055C64.5718 104.879 64.5649 105.701 64.5623 106.528C64.5628 106.685 64.5633 106.843 64.5638 107.004C64.5636 107.155 64.5635 107.305 64.5633 107.459C64.5631 107.663 64.5631 107.663 64.5629 107.871C64.5469 108.213 64.5469 108.213 64.4235 108.586C64.3806 108.792 64.3391 108.999 64.3001 109.207C64.2187 109.207 64.1373 109.207 64.0534 109.207C64.0865 109.337 64.0865 109.337 64.1204 109.47C64.1834 109.87 64.1546 110.182 64.0919 110.581C64.0736 110.708 64.0554 110.835 64.0365 110.966C63.9125 111.376 63.7408 111.524 63.4364 111.815C63.3145 112.096 63.3145 112.096 63.2437 112.39C63.1064 112.906 63.1064 112.906 62.6961 113.182C62.63 113.139 62.5638 113.097 62.4956 113.053C62.1152 112.898 61.8675 112.948 61.4623 113.003C60.721 113.078 60.1629 112.973 59.4543 112.763C59.1221 112.686 58.9034 112.683 58.5704 112.739C58.091 112.815 57.9415 112.759 57.5139 112.561C57.1055 112.487 56.7258 112.435 56.3109 112.444C56.0333 112.436 56.0333 112.436 55.6631 112.188C55.5817 112.311 55.5002 112.434 55.4163 112.561C55.2662 112.515 55.116 112.468 54.9614 112.421C54.535 112.306 54.535 112.306 54.1208 112.452C53.8123 112.561 53.8123 112.561 53.5771 112.476C53.4093 112.39 53.2433 112.3 53.0797 112.206C52.5162 111.892 52.1369 111.784 51.4911 111.862C51.3707 111.876 51.2503 111.889 51.1263 111.904C51.0354 111.916 50.9446 111.927 50.851 111.94C50.8103 111.858 50.7696 111.776 50.7277 111.691C50.6462 111.732 50.5648 111.773 50.4809 111.815C50.3995 111.774 50.318 111.733 50.2341 111.691C50.2341 111.609 50.2341 111.527 50.2341 111.443C50.1527 111.443 50.0712 111.443 49.9873 111.443C49.9873 111.525 49.9873 111.607 49.9873 111.691C49.8245 111.691 49.6616 111.691 49.4938 111.691C49.4938 111.609 49.4938 111.527 49.4938 111.443C49.1273 111.566 48.7609 111.689 48.3833 111.815C48.3833 111.897 48.3833 111.979 48.3833 112.064C48.0292 112.197 47.7548 112.18 47.3885 112.126C46.9156 112.03 46.9156 112.03 46.5325 112.188C46.4104 112.106 46.2882 112.024 46.1624 111.94C46.1217 112.063 46.0809 112.186 46.039 112.312C45.7691 112.413 45.7691 112.413 45.4221 112.436C44.8223 111.948 44.4482 111.439 44.3578 110.666C44.3426 110.513 44.3273 110.359 44.3116 110.2C44.2709 110.159 44.2301 110.118 44.1882 110.076C44.1172 109.692 44.0611 109.306 44.0031 108.919C43.9758 108.597 43.9758 108.597 43.818 108.461C43.8118 108.244 43.8137 108.027 43.819 107.809C43.8211 107.675 43.8231 107.54 43.8253 107.401C43.8306 107.118 43.837 106.835 43.8445 106.552C43.8544 105.785 43.7938 105.194 43.5203 104.479C43.4061 104.098 43.4923 103.813 43.6021 103.438C43.8408 102.478 43.8946 101.56 43.93 100.576C43.9465 100.124 43.9669 99.6722 43.9872 99.2203C43.9978 98.9832 44.0082 98.746 44.0183 98.5089C44.0448 97.904 44.0811 97.3024 44.1342 96.6991C44.2013 95.8198 44.2017 94.9409 44.2036 94.0594C44.2045 93.8405 44.2045 93.8405 44.2053 93.6172C44.2051 93.4776 44.2048 93.338 44.2046 93.1942C44.2044 93.0693 44.2043 92.9444 44.2042 92.8157C44.1953 92.4335 44.1953 92.4335 44.1265 92.0476C44.0421 91.3903 44.0472 90.7415 44.0484 90.0794C44.0482 89.8631 44.0482 89.8631 44.0481 89.6423C44.048 89.3368 44.0482 89.0313 44.0487 88.7258C44.0494 88.2673 44.0487 87.8089 44.0479 87.3504C44.0475 85.6053 44.0851 83.8683 44.1882 82.1263C44.029 82.2427 43.8704 82.3597 43.712 82.4771C43.6236 82.5422 43.5352 82.6074 43.4441 82.6745C43.1759 82.8775 43.1759 82.8775 42.9235 83.221C42.6805 83.5268 42.5789 83.5409 42.214 83.6169C42.1733 83.7399 42.1326 83.8629 42.0906 83.9896C41.8757 84.2031 41.8757 84.2031 41.6125 84.4244C41.2465 84.7331 41.2465 84.7331 40.9098 85.0727C40.7334 85.2318 40.7334 85.2318 40.3632 85.2318C40.3231 85.3651 40.3231 85.3651 40.2822 85.5011C40.0728 85.9456 39.8022 86.1871 39.4378 86.5129C39.3169 86.6226 39.1961 86.7323 39.0715 86.8453C38.7592 87.0952 38.7592 87.0952 38.5124 87.0952C38.4809 87.1679 38.4494 87.2406 38.417 87.3155C38.2506 87.6196 38.0696 87.8056 37.8184 88.0424C37.4366 88.4149 37.1024 88.7989 36.7773 89.2225C36.4298 89.6708 36.0786 90.0318 35.6408 90.388C35.1176 90.8433 34.6843 91.3856 34.3019 91.9631C34.0531 92.3389 33.7742 92.6185 33.4536 92.9336C33.0975 93.3329 32.7624 93.7289 32.4665 94.1758C32.3851 94.1758 32.3036 94.1758 32.2197 94.1758C32.1701 94.295 32.1701 94.295 32.1195 94.4165C31.973 94.6727 31.973 94.6727 31.6028 94.7969C31.5175 95.0027 31.4356 95.21 31.356 95.418C31.1464 95.6883 31.1464 95.6883 30.901 95.9538C30.8126 96.051 30.7242 96.1482 30.6331 96.2483C30.5459 96.3433 30.4587 96.4382 30.3689 96.536C29.7805 97.1979 29.2194 97.8786 28.6675 98.5716C28.3858 98.907 28.0987 99.2196 27.7778 99.5174C27.6964 99.5174 27.6149 99.5174 27.531 99.5174C27.5205 99.5899 27.51 99.6625 27.4992 99.7372C27.3817 100.093 27.2124 100.232 26.9295 100.472C26.8433 100.547 26.7571 100.622 26.6683 100.699C26.4206 100.884 26.4206 100.884 26.0504 101.008C26.0148 101.08 25.9792 101.152 25.9424 101.225C25.7131 101.687 25.3907 102.054 24.9014 102.227C24.7983 102.239 24.7983 102.239 24.6932 102.25C24.6932 102.332 24.6932 102.414 24.6932 102.499C24.2813 102.637 24.2277 102.599 23.8295 102.499C23.6157 102.51 23.6157 102.51 23.3976 102.522C22.9658 102.499 22.9658 102.499 22.6727 102.289C22.4556 101.978 22.3902 101.756 22.3488 101.381C22.4303 101.34 22.5117 101.299 22.5956 101.256C22.5017 101.113 22.4063 100.971 22.3103 100.829C22.2308 100.711 22.2308 100.711 22.1498 100.589C21.9782 100.351 21.9782 100.351 21.6085 100.263C21.5932 100.183 21.578 100.104 21.5622 100.022C21.5368 99.9375 21.5113 99.8529 21.4851 99.7658C21.2119 99.6307 21.2119 99.6307 20.8682 99.5174C20.5751 99.3598 20.2909 99.1901 20.0045 99.0205C20.0045 98.8975 20.0045 98.7745 20.0045 98.6478C19.923 98.6478 19.8416 98.6478 19.7577 98.6478C19.7043 98.5069 19.6508 98.366 19.5958 98.2208C19.5271 98.0748 19.4583 97.9287 19.3876 97.7783C19.2654 97.7373 19.1432 97.6963 19.0174 97.654C18.941 97.6105 18.8647 97.5669 18.786 97.5221C18.476 97.3843 18.2423 97.3868 17.9069 97.4056C17.8662 97.1596 17.8255 96.9137 17.7835 96.6603C17.6461 96.6244 17.5087 96.5885 17.3671 96.5516C16.9198 96.4118 16.9198 96.4118 16.6731 96.1634C16.4013 96.1062 16.4013 96.1062 16.1024 96.0857C16.0016 96.0765 15.9007 96.0672 15.7968 96.0576C15.7195 96.0515 15.6422 96.0454 15.5626 96.0392C15.5091 95.8982 15.4557 95.7573 15.4006 95.6121C15.3319 95.4661 15.2632 95.3201 15.1924 95.1696C15.0703 95.1286 14.9481 95.0876 14.8223 95.0454C14.6536 95.1638 14.4888 95.2881 14.3287 95.418C14.2473 95.418 14.1658 95.418 14.0819 95.418C14.0819 95.2951 14.0819 95.1721 14.0819 95.0454C13.9598 95.0454 13.8376 95.0454 13.7118 95.0454C13.7118 94.7584 13.7118 94.4715 13.7118 94.1758C13.5082 94.2578 13.3046 94.3398 13.0949 94.4243C13.0134 94.3423 12.932 94.2603 12.8481 94.1758C12.5602 94.1707 12.2722 94.1707 11.9844 94.1758C11.9029 94.1348 11.8215 94.0938 11.7376 94.0516C11.7071 93.9542 11.6765 93.8569 11.6451 93.7566C11.4297 93.3012 11.2148 93.2363 10.7505 93.0578C10.4577 92.9841 10.1654 92.9197 9.86898 92.8628C9.64004 92.8094 9.64004 92.8094 9.51665 92.6852C8.91942 92.6648 8.37748 92.6909 7.78925 92.8094C7.78925 92.8914 7.78925 92.9734 7.78925 93.0578C7.66709 93.0578 7.54494 93.0578 7.41909 93.0578C7.40382 93.1782 7.38855 93.2987 7.37282 93.4227C7.34737 93.5483 7.32192 93.6738 7.2957 93.8032C7.21427 93.8442 7.13283 93.8851 7.04893 93.9274C6.92678 93.8454 6.80462 93.7634 6.67877 93.6789C6.84774 93.3125 7.03391 92.9927 7.2957 92.6852C7.37713 92.6852 7.45857 92.6852 7.54247 92.6852C7.52466 92.5827 7.50684 92.4802 7.48849 92.3746C7.55878 91.8085 7.79805 91.5884 8.18109 91.1858C8.41334 90.9493 8.41334 90.9493 8.60427 90.6675C8.66105 90.5955 8.71783 90.5234 8.77633 90.4492C8.85777 90.4492 8.9392 90.4492 9.02311 90.4492C9.05428 90.3793 9.08546 90.3095 9.11757 90.2376C9.29163 89.9115 9.49919 89.6482 9.73258 89.3622C10.0498 88.9706 10.3567 88.5765 10.6503 88.1666C10.9345 87.7805 11.2368 87.5159 11.6142 87.2194C11.8285 86.9879 12.0323 86.749 12.2365 86.5085C12.5911 86.093 12.958 85.6888 13.3233 85.2828C13.559 85.0166 13.7866 84.7456 14.0125 84.471C14.1169 84.3531 14.2212 84.2353 14.3287 84.1138C14.4102 84.1138 14.4916 84.1138 14.5755 84.1138C14.6025 84.0482 14.6296 83.9825 14.6574 83.9149C14.8828 83.5075 15.1814 83.1737 15.4855 82.825C15.6187 82.6706 15.7519 82.5161 15.885 82.3616C15.9537 82.2823 16.0223 82.203 16.0931 82.1212C16.3022 81.8786 16.5099 81.6347 16.7169 81.3902C16.8164 81.2727 16.8164 81.2727 16.918 81.1528C17.0452 81.0025 17.1724 80.8521 17.2996 80.7017C17.5743 80.3781 17.8517 80.064 18.1537 79.7661C18.2912 79.6119 18.4273 79.4565 18.5624 79.3002C18.638 79.213 18.7135 79.1257 18.7913 79.0358C18.9967 78.7964 19.2 78.5555 19.403 78.3142C19.7106 77.9519 20.0354 77.6144 20.3746 77.2816C20.4841 77.1663 20.5935 77.051 20.7062 76.9322C20.9916 76.6605 20.9916 76.6605 21.2383 76.6605C21.2715 76.5865 21.3047 76.5126 21.3388 76.4364C21.4856 76.1628 21.6307 75.99 21.8514 75.7749C21.9219 75.7054 21.9923 75.6358 22.0649 75.5641C22.1383 75.4929 22.2116 75.4217 22.2871 75.3484C22.4326 75.2062 22.5779 75.0637 22.7228 74.9209C22.8193 74.8271 22.8193 74.8271 22.9178 74.7314C23.117 74.5293 23.117 74.5293 23.3359 74.1761C23.4173 74.1761 23.4988 74.1761 23.5827 74.1761C23.5827 74.0941 23.5827 74.0121 23.5827 73.9276C23.124 73.8203 22.7035 73.7894 22.2331 73.7932C22.0878 73.7941 21.9426 73.7949 21.793 73.7957C21.5578 73.7978 21.5578 73.7978 21.3179 73.8C21.1522 73.8009 20.9864 73.8016 20.8207 73.8023C20.121 73.8053 19.4214 73.8096 18.7217 73.8153C16.6918 73.8312 14.6897 73.7894 12.6653 73.6105C11.8577 73.5404 11.0599 73.5304 10.2493 73.5472C9.35658 73.5565 8.47154 73.5592 7.58103 73.4928C6.58476 73.4206 5.59293 73.4235 4.59437 73.4353C4.4736 73.4364 4.35283 73.4374 4.2284 73.4385C4.06718 73.4407 4.06718 73.4407 3.9027 73.4429C3.58139 73.4302 3.29037 73.3781 2.97718 73.3065C2.80469 73.2683 2.80469 73.2683 2.62871 73.2294C1.70735 72.9649 1.70735 72.9649 1.47293 72.5486C1.30352 71.7971 1.32869 70.9519 1.49655 70.201C1.57798 70.16 1.65942 70.119 1.74332 70.0767C1.66188 69.9947 1.58045 69.9128 1.49655 69.8283C1.49655 69.6643 1.49655 69.5003 1.49655 69.3314C1.57798 69.3314 1.65942 69.3314 1.74332 69.3314C1.72042 69.234 1.69751 69.1367 1.67391 69.0364C1.61993 68.7103 1.61993 68.7103 1.74332 68.4618C1.66188 68.4209 1.58045 68.3799 1.49655 68.3376C1.46702 67.7828 1.46307 67.3681 1.68163 66.8547C1.87818 66.3841 1.89083 65.9981 1.87104 65.4922C1.8667 65.2321 1.8667 65.2321 1.93611 64.8439C2.00167 64.4101 1.93806 64.0482 1.8667 63.6172C1.8667 63.4532 1.8667 63.2892 1.8667 63.1203C1.94814 63.1203 2.02957 63.1203 2.11348 63.1203C2.07326 63.0502 2.03304 62.98 1.9916 62.9078C1.85363 62.5936 1.83812 62.3903 1.84261 62.0489C1.8438 61.8865 1.8438 61.8865 1.84502 61.7209C1.84708 61.6088 1.84915 61.4967 1.85128 61.3812C1.8524 61.2691 1.85351 61.157 1.85466 61.0415C1.8568 60.8329 1.85946 60.6242 1.86279 60.4156C1.86644 60.1577 1.8667 59.8999 1.8667 59.6421C1.88277 59.334 1.90099 59.026 1.92069 58.7182C1.93071 58.5569 1.94073 58.3957 1.95105 58.2295C1.98304 57.8601 2.03557 57.5188 2.11348 57.1576C2.14182 56.9639 2.16764 56.7698 2.19059 56.5753C2.20236 56.4801 2.21413 56.3848 2.22626 56.2866C2.25715 56.0302 2.25715 56.0302 2.11348 55.7912C2.19491 55.7502 2.27635 55.7092 2.36025 55.667C2.3488 55.4402 2.3488 55.4402 2.33711 55.2089C2.33456 54.7257 2.43764 54.4451 2.73041 54.0521C2.64897 54.0521 2.56754 54.0521 2.48364 54.0521C2.52219 53.8114 2.52219 53.8114 2.60702 53.5552C2.72917 53.5142 2.85133 53.4732 2.97718 53.431C3.0179 53.349 3.05862 53.267 3.10057 53.1825C3.26344 53.1825 3.42631 53.1825 3.59411 53.1825C3.70354 53.1415 3.81297 53.1005 3.92571 53.0583C4.36266 52.9255 4.70454 52.9185 5.15572 52.9375C5.45166 52.9424 5.45166 52.9424 5.76398 52.8734C6.36253 52.7831 6.95358 52.7919 7.5579 52.7943C7.74089 52.7936 7.74089 52.7936 7.92757 52.7929C8.10388 52.7931 8.10388 52.7931 8.28375 52.7934C8.39018 52.7935 8.49661 52.7936 8.60626 52.7938C8.88693 52.8092 9.12234 52.8632 9.39327 52.9341C9.57157 52.9503 9.75035 52.9617 9.92922 52.969C10.0824 52.9759 10.0824 52.9759 10.2387 52.9829C10.3465 52.9873 10.4543 52.9917 10.5654 52.9962C11.2461 53.0264 11.9233 53.0585 12.6013 53.1282C13.1986 53.1819 13.7913 53.1869 14.3904 53.1825C15.535 53.1745 16.6781 53.1979 17.8222 53.2288C18.0212 53.2341 18.2202 53.2393 18.4192 53.2443C18.7028 53.2515 18.9864 53.2594 19.2699 53.2674C19.3542 53.2695 19.4384 53.2716 19.5252 53.2737C19.9421 53.2865 20.3478 53.3178 20.7599 53.3791C21.2159 53.4285 21.533 53.3921 21.9787 53.3067C22.3087 53.2954 22.6353 53.2893 22.9653 53.2902C23.058 53.2901 23.1508 53.29 23.2464 53.2899C23.4416 53.2898 23.6369 53.29 23.8321 53.2906C24.1289 53.2912 24.4256 53.2906 24.7223 53.2898C24.9129 53.2898 25.1036 53.29 25.2942 53.2902C25.4257 53.2899 25.4257 53.2899 25.5599 53.2895C26.1042 53.292 26.6239 53.3443 27.1609 53.431C28.0072 53.4941 28.8017 53.3568 29.6286 53.1825C29.302 52.2978 28.7438 51.7675 28.0246 51.195C28.1467 51.113 28.2689 51.031 28.3947 50.9465C28.293 50.9235 28.1912 50.9004 28.0863 50.8767C27.2843 50.545 26.7076 49.9718 26.2972 49.2074C26.2081 49.1177 26.119 49.0281 26.0273 48.9357C25.8036 48.7105 25.8036 48.7105 25.8036 48.4621C25.7044 48.4237 25.7044 48.4237 25.6031 48.3844C25.0631 48.0697 24.6667 47.6147 24.323 47.0956C24.1051 46.9011 23.8792 46.7196 23.6516 46.5366C23.4593 46.3503 23.4593 46.3503 23.3359 45.9776C23.0891 45.8275 23.0891 45.8275 22.8424 45.7292C22.8424 45.6062 22.8424 45.4832 22.8424 45.3565C22.7202 45.3565 22.5981 45.3565 22.4722 45.3565C22.4442 45.2592 22.4162 45.1618 22.3874 45.0615C22.2581 44.7104 22.2581 44.7104 21.9324 44.619C21.4863 44.4372 21.3653 44.145 21.115 43.7416C20.9928 43.6597 20.8707 43.5777 20.7448 43.4932C20.7448 43.3702 20.7448 43.2472 20.7448 43.1205C20.5412 43.0385 20.3376 42.9566 20.1279 42.8721C20.1279 42.7491 20.1279 42.6261 20.1279 42.4994C20.0541 42.4687 19.9803 42.4379 19.9042 42.4063C19.5964 42.2291 19.4748 42.0369 19.2642 41.7541C19.1878 41.7157 19.1115 41.6772 19.0328 41.6376C18.6621 41.451 18.4255 41.1961 18.1537 40.8845C18.1537 40.7616 18.1537 40.6386 18.1537 40.5119C18.0818 40.5015 18.0099 40.4911 17.9358 40.4803C17.5799 40.3607 17.4384 40.1852 17.1974 39.8985C17.1217 39.8103 17.046 39.7221 16.968 39.6312C16.7964 39.3939 16.7964 39.3939 16.7964 39.1454C16.715 39.1454 16.6336 39.1454 16.5497 39.1454C16.5497 39.0634 16.5497 38.9815 16.5497 38.897C16.4682 38.897 16.3868 38.897 16.3029 38.897C16.1024 38.7262 16.1024 38.7262 15.9327 38.5243C15.9327 38.4423 15.9327 38.3603 15.9327 38.2759C15.8106 38.2349 15.6884 38.1939 15.5626 38.1516C15.3539 37.9057 15.1482 37.6573 14.9456 37.4063C14.8642 37.3653 14.7828 37.3243 14.6989 37.2821C14.6166 37.0751 14.5344 36.868 14.4521 36.661C14.3707 36.62 14.2892 36.579 14.2053 36.5368C14.2053 36.4548 14.2053 36.3728 14.2053 36.2883C14.0425 36.2473 13.8796 36.2063 13.7118 36.1641C13.7118 36.0821 13.7118 36.0001 13.7118 35.9156C13.6385 35.8823 13.5652 35.8489 13.4897 35.8145C13.217 35.6665 13.0398 35.5179 12.8225 35.2974C12.7506 35.2248 12.6786 35.1522 12.6045 35.0774C12.5296 35.0005 12.4548 34.9235 12.3777 34.8442C12.3004 34.7656 12.2231 34.687 12.1434 34.6059C11.683 34.1347 11.2384 33.6545 10.8141 33.1498C10.6097 32.9142 10.3937 32.6955 10.1721 32.4762C9.84383 32.1502 9.53877 31.8227 9.26988 31.4437C9.26988 31.3617 9.26988 31.2797 9.26988 31.1952C9.19799 31.1643 9.1261 31.1334 9.05203 31.1016C8.73746 30.9249 8.54978 30.7304 8.31364 30.4576C8.23793 30.372 8.16222 30.2863 8.08421 30.198C7.91263 29.953 7.91263 29.953 7.91263 29.5803C7.79048 29.5803 7.66833 29.5803 7.54247 29.5803C7.08221 29.1657 6.70224 28.6915 6.30861 28.2139C6.16737 28.0755 6.16737 28.0755 6.02328 27.9344C5.81507 27.717 5.81507 27.717 5.81507 27.4685C5.69291 27.4276 5.57076 27.3866 5.44491 27.3443C5.27631 27.1406 5.11239 26.933 4.95136 26.7232C4.85211 26.6233 4.75286 26.5234 4.65061 26.4204C4.30754 26.075 4.00219 25.753 3.7175 25.3568C3.74063 25.0617 3.74063 25.0617 3.84088 24.8599C3.76454 24.8829 3.68819 24.906 3.60954 24.9298C3.34734 24.9841 3.34734 24.9841 3.10057 24.8599C3.01831 24.6943 2.93605 24.5286 2.85379 24.363C2.77236 24.322 2.69093 24.281 2.60702 24.2388C2.60702 24.1568 2.60702 24.0748 2.60702 23.9903C2.53752 23.9644 2.46801 23.9384 2.3964 23.9117C2.0073 23.6781 1.80364 23.3776 1.5351 23.0121C1.43792 22.8817 1.34074 22.7514 1.24062 22.6171C1.03996 22.3081 0.930418 22.1132 0.879615 21.7543C0.79818 21.7543 0.716745 21.7543 0.632843 21.7543C0.105325 20.8458 -0.122865 20.1639 0.065073 19.1214C0.139297 18.8972 0.139297 18.8972 0.38607 18.773C0.462415 18.6231 0.462415 18.6231 0.540303 18.4702C0.820244 18.0575 1.02652 18.0463 1.49655 17.9034C1.76104 17.7477 2.0152 17.5812 2.26964 17.4095C2.48364 17.2823 2.48364 17.2823 2.73041 17.2823C2.73041 17.2003 2.73041 17.1184 2.73041 17.0339C2.85256 16.9929 2.97471 16.9519 3.10057 16.9097C3.182 17.0326 3.26344 17.1556 3.34734 17.2823C3.38297 17.144 3.4186 17.0056 3.4553 16.8631C3.55555 16.62 3.55555 16.62 3.7175 16.4128C4.02808 16.3156 4.3279 16.2796 4.65013 16.2376C5.14385 16.1175 5.28713 15.8307 5.56829 15.419C5.93845 15.1706 5.93845 15.1706 6.30861 15.1706C6.36969 14.9861 6.36969 14.9861 6.432 14.7979C6.73738 14.7364 6.73738 14.7364 7.04893 14.6737C7.11 14.4892 7.11 14.4892 7.17231 14.301C7.36896 14.1646 7.36896 14.1646 7.60417 14.0448C7.95337 13.8756 7.95337 13.8756 8.1594 13.5557C8.24084 13.5557 8.32227 13.5557 8.40618 13.5557C8.40618 13.4737 8.40618 13.3917 8.40618 13.3072C8.60467 13.2842 8.60467 13.2842 8.80718 13.2606C9.19879 13.1949 9.42607 13.1232 9.76342 12.9346C9.84486 12.9346 9.92629 12.9346 10.0102 12.9346C10.0662 12.8141 10.1222 12.6937 10.1799 12.5697C10.3804 12.1892 10.3804 12.1892 10.6271 12.065C10.9569 12.0483 11.2839 12.0596 11.6142 12.065C11.6142 11.901 11.6142 11.7371 11.6142 11.5681C11.7364 11.5271 11.8585 11.4861 11.9844 11.4439C12.0251 11.3619 12.0658 11.2799 12.1078 11.1954C12.3897 11.1168 12.3897 11.1168 12.7324 11.0557C12.8458 11.0349 12.9592 11.0141 13.0761 10.9926C13.2075 10.97 13.2075 10.97 13.3416 10.947C13.3416 10.865 13.3416 10.783 13.3416 10.6986C13.5859 10.7396 13.8302 10.7805 14.0819 10.8228C14.0819 10.6998 14.0819 10.5768 14.0819 10.4501C14.2855 10.4501 14.4891 10.4501 14.6989 10.4501C14.76 10.2656 14.76 10.2656 14.8223 10.0774C15.2431 10.0774 15.6404 10.1385 16.0561 10.2017C16.0968 10.3246 16.1376 10.4476 16.1795 10.5743C16.3017 10.5743 16.4238 10.5743 16.5497 10.5743C17.0786 10.9616 17.4841 11.4077 17.9055 11.9083C18.2972 12.3517 18.7236 12.759 19.148 13.1704C19.3876 13.4314 19.3876 13.4314 19.3876 13.6799C19.469 13.6799 19.5504 13.6799 19.6343 13.6799C19.79 13.8939 19.79 13.8939 19.9659 14.1845C20.2268 14.5967 20.4901 14.9306 20.8451 15.2637C21.1832 15.5854 21.347 15.8002 21.3617 16.2886C21.4839 16.3295 21.606 16.3705 21.7319 16.4128C21.7319 16.4948 21.7319 16.5767 21.7319 16.6612C21.8948 16.7022 22.0576 16.7432 22.2254 16.7854C22.2662 16.9494 22.3069 17.1134 22.3488 17.2823C22.4303 17.2823 22.5117 17.2823 22.5956 17.2823C22.5956 17.3643 22.5956 17.4463 22.5956 17.5308C22.7177 17.5718 22.8399 17.6128 22.9658 17.655C22.9925 17.7741 22.9925 17.7741 23.0197 17.8957C23.0426 17.9802 23.0655 18.0648 23.0891 18.1519C23.1706 18.1929 23.252 18.2339 23.3359 18.2761C23.4173 18.3171 23.4988 18.3581 23.5827 18.4003C23.6238 18.566 23.6649 18.7316 23.7061 18.8972C23.8682 18.9847 24.0333 19.0666 24.1996 19.1457C24.5501 19.4707 24.86 19.8175 25.1636 20.186C25.5124 20.6024 25.8996 20.9502 26.3102 21.3035C27.0887 21.9775 27.0887 21.9775 27.292 22.3987C27.3916 22.6476 27.3916 22.6476 27.6621 22.7481C27.741 22.7891 27.8199 22.8301 27.9012 22.8723C27.9423 23.038 27.9835 23.2036 28.0246 23.3692C28.1879 23.4543 28.3527 23.5367 28.5181 23.6177C29.2885 24.2127 29.9033 24.9182 30.5 25.6829C30.7664 26.0116 31.0545 26.3028 31.356 26.599C31.5617 26.806 31.7673 27.0131 31.973 27.2201C32.118 27.3623 32.118 27.3623 32.266 27.5074C32.528 27.7774 32.7709 28.0513 33.014 28.3381C33.2839 28.6545 33.5513 28.9278 33.8777 29.1844C33.9821 29.274 34.0864 29.3637 34.1939 29.4561C34.1939 29.5791 34.1939 29.7021 34.1939 29.8288C34.2661 29.8608 34.3383 29.8928 34.4127 29.9258C34.7091 30.0891 34.9011 30.2675 35.1347 30.512C35.2076 30.5876 35.2804 30.6631 35.3555 30.741C35.42 30.8089 35.4846 30.8768 35.5512 30.9468C35.6326 31.0288 35.714 31.1107 35.7979 31.1952C35.8895 31.29 35.9812 31.3848 36.0755 31.4825C36.3205 31.7235 36.5577 31.9362 36.8236 32.1502C36.933 32.245 37.0424 32.3398 37.1552 32.4374C37.1552 32.5194 37.1552 32.6014 37.1552 32.6859C37.229 32.7166 37.3028 32.7474 37.3788 32.779C37.6877 32.9568 37.8314 33.1292 38.0189 33.4312C38.0189 33.5132 38.0189 33.5952 38.0189 33.6797C38.1601 33.7258 38.1601 33.7258 38.3042 33.7728C38.6729 33.9455 38.7737 34.0996 39.006 34.425C39.0836 34.4626 39.1612 34.5002 39.2412 34.539C39.5265 34.6874 39.6625 34.8341 39.862 35.0849C40.2655 35.5769 40.6808 36.0249 41.1807 36.4203C41.4586 36.6486 41.6525 36.8537 41.8439 37.1579C41.8439 37.2399 41.8439 37.3218 41.8439 37.4063C41.9227 37.4396 42.0016 37.4729 42.0829 37.5072C42.3374 37.6548 42.3374 37.6548 42.4608 38.0274C42.5422 38.0274 42.6237 38.0274 42.7076 38.0274C42.8902 38.2186 42.8902 38.2186 43.1008 38.4777C43.4472 38.8892 43.8048 39.2308 44.2186 39.571C44.4632 39.792 44.6649 40.032 44.8745 40.2867C45.2232 40.7026 45.5404 40.9112 46.039 41.133C46.1204 41.256 46.2019 41.3789 46.2858 41.5056C46.2858 41.3724 46.2858 41.2392 46.2858 41.1019C46.2858 40.4333 46.302 39.9321 46.5325 39.3085C46.6627 38.8743 46.7117 38.4717 46.7489 38.0216C46.7793 37.779 46.7793 37.779 46.9027 37.5305C46.9841 37.5305 47.0656 37.5305 47.1495 37.5305C47.1902 37.2846 47.2309 37.0386 47.2728 36.7852C47.1914 36.7442 47.11 36.7032 47.0261 36.661C47.1482 36.661 47.2704 36.661 47.3962 36.661C47.3962 36.579 47.3962 36.497 47.3962 36.4125C47.3148 36.4125 47.2334 36.4125 47.1495 36.4125C47.1108 36.2392 47.0723 36.0658 47.0338 35.8924C47.0016 35.7475 47.0016 35.7475 46.9687 35.5998C46.9469 35.499 46.9251 35.3983 46.9027 35.2945C46.8772 35.1972 46.8518 35.0998 46.8256 34.9995C46.7668 34.5854 46.8248 34.2387 46.895 33.8272C46.931 33.6107 46.931 33.6107 46.9678 33.39C46.987 33.2806 47.0062 33.1712 47.0261 33.0585C47.0668 33.1405 47.1075 33.2225 47.1495 33.307C47.2309 33.307 47.3123 33.307 47.3962 33.307C47.3962 33.225 47.3962 33.143 47.3962 33.0585C47.4777 33.0585 47.5591 33.0585 47.643 33.0585C47.643 32.9356 47.643 32.8126 47.643 32.6859C47.7244 32.6859 47.8059 32.6859 47.8898 32.6859C47.8491 32.4809 47.8083 32.2759 47.7664 32.0648C47.685 32.0648 47.6035 32.0648 47.5196 32.0648C47.4789 32.3107 47.4382 32.5567 47.3962 32.8101C47.3148 32.8101 47.2334 32.8101 47.1495 32.8101C47.1428 32.4478 47.1379 32.0855 47.134 31.7232C47.132 31.6207 47.1299 31.5182 47.1278 31.4126C47.127 31.3133 47.1262 31.214 47.1254 31.1117C47.1241 31.0207 47.1228 30.9296 47.1214 30.8358C47.1534 30.537 47.2491 30.3365 47.3962 30.0772C47.4777 30.1182 47.5591 30.1592 47.643 30.2014C47.643 30.3654 47.643 30.5294 47.643 30.6983C47.7244 30.6983 47.8059 30.6983 47.8898 30.6983C47.9047 30.6263 47.9197 30.5542 47.9351 30.48C48.0317 30.0264 48.1324 29.5926 48.2831 29.1533C48.4219 28.8406 48.4219 28.8406 48.2599 28.5865C48.2807 28.3588 48.3116 28.1321 48.3472 27.9062C48.3686 27.7652 48.39 27.6242 48.4121 27.4789C48.4357 27.3269 48.4593 27.1749 48.4836 27.0182C48.6818 25.6951 48.833 24.3783 48.9267 23.0436C48.9349 22.928 48.9431 22.8124 48.9516 22.6933C48.9614 22.5421 48.9614 22.5421 48.9714 22.3878C49.0003 22.127 49.0003 22.127 49.1236 21.7543C49.116 21.566 49.116 21.566 49.1082 21.3739C49.1278 20.7538 49.2977 20.2267 49.4938 19.6426C49.4124 19.6426 49.3309 19.6426 49.247 19.6426C49.2245 18.986 49.2687 18.5266 49.4938 17.9034C49.4938 17.7395 49.4938 17.5755 49.4938 17.4066C49.3309 17.4066 49.1681 17.4066 49.0003 17.4066C48.9595 17.5295 48.9188 17.6525 48.8769 17.7792C48.7547 17.7382 48.6326 17.6972 48.5067 17.655C48.4191 16.9681 48.346 16.3507 48.5067 15.6674C48.5881 15.6674 48.6696 15.6674 48.7535 15.6674C48.7535 15.5855 48.7535 15.5035 48.7535 15.419C48.8349 15.419 48.9164 15.419 49.0003 15.419C48.957 15.3293 48.9137 15.2397 48.8692 15.1473C48.7406 14.7591 48.7669 14.5641 48.8769 14.1768C48.7954 14.1358 48.714 14.0948 48.6301 14.0526C48.4333 13.2006 48.4959 12.3131 48.5067 11.4439C48.5881 11.4439 48.6696 11.4439 48.7535 11.4439C48.7128 11.3619 48.672 11.2799 48.6301 11.1954C48.6212 10.8836 48.6186 10.5754 48.6224 10.2638C48.6229 10.1781 48.6235 10.0924 48.6241 10.0042C48.6256 9.78015 48.6278 9.55613 48.6301 9.33211C48.6301 9.25013 48.6301 9.16814 48.6301 9.08367C48.6607 8.64392 48.6937 8.20437 48.7265 7.76478C48.7461 7.45958 48.7535 7.15351 48.7535 6.84767C48.775 6.64304 48.7982 6.43859 48.8229 6.23433C48.8703 5.78189 48.8637 5.42803 48.7535 4.98434C48.7535 4.7359 48.7535 4.48745 48.7535 4.23901C48.7306 4.16215 48.7077 4.08528 48.6841 4.00609C48.6256 3.72013 48.6507 3.52508 48.6918 3.23747C48.7875 2.76135 48.7875 2.76135 48.6301 2.37568C48.7115 2.37568 48.793 2.37568 48.8769 2.37568C48.8365 2.28808 48.7961 2.20049 48.7544 2.11025C48.6197 1.72492 48.6049 1.43903 48.6147 1.03252C48.6169 0.911306 48.6191 0.790087 48.6214 0.665196C48.6257 0.528044 48.6257 0.528044 48.6301 0.388122C48.5487 0.347129 48.4672 0.306136 48.3833 0.2639C48.424 0.181913 48.4648 0.0999268 48.5067 0.0154557ZM50.2341 22.4997C50.3575 22.7481 50.3575 22.7481 50.3575 22.7481L50.2341 22.4997ZM50.1107 24.363C50.2341 24.6114 50.2341 24.6114 50.2341 24.6114L50.1107 24.363ZM52.8252 108.337C52.8659 108.583 52.9067 108.829 52.9486 109.082C53.3033 108.922 53.5563 108.758 53.8123 108.461C53.8123 108.42 53.8123 108.379 53.8123 108.337C53.4866 108.337 53.1608 108.337 52.8252 108.337ZM56.1567 108.958C55.9878 109.519 56.0986 109.901 56.28 110.449C56.4022 110.449 56.5243 110.449 56.6502 110.449C56.6742 110.247 56.6972 110.045 56.7196 109.843C56.7325 109.731 56.7454 109.619 56.7586 109.503C56.7979 109.205 56.7979 109.205 56.6502 108.958C56.4873 108.958 56.3245 108.958 56.1567 108.958Z" fill="#191919"/>
</svg>
